<svg version="1.1" id="Layer_1" xmlns="http://www.w3.org/2000/svg" xmlns:xlink="http://www.w3.org/1999/xlink" x="0px" y="0px"
	 width="100%" viewBox="0 0 1372 1336" xml:space="preserve">
<path fill="#00FFFF" opacity="1.000000" stroke="none" 
	d="
M687.948853,108.943741 
	C689.213867,98.287041 693.622742,88.786133 698.895325,79.643929 
	C712.879883,55.395725 736.021545,43.925743 761.069885,34.968189 
	C774.657410,30.109152 788.704468,28.724915 802.753845,30.212172 
	C819.112915,31.943932 833.880554,38.452145 847.131470,48.510143 
	C861.095215,59.109303 869.331909,73.680695 876.304993,89.118019 
	C884.764893,107.846931 892.885376,126.732506 900.924377,145.647354 
	C912.798279,173.585098 924.408386,201.634857 936.248474,229.587082 
	C946.080933,252.799698 956.145081,275.914154 965.993530,299.120026 
	C976.786255,324.550751 987.387207,350.062866 998.187256,375.490417 
	C1008.042908,398.694458 1018.138794,421.796570 1027.973633,445.009338 
	C1040.457764,474.475342 1052.709351,504.039948 1065.204956,533.501099 
	C1074.984131,556.557800 1085.074219,579.482666 1094.859497,602.536865 
	C1106.724121,630.490173 1118.347046,658.546021 1130.198730,686.504883 
	C1140.038452,709.716919 1150.141235,732.817444 1159.976929,756.031189 
	C1172.462158,785.498352 1184.718262,815.062744 1197.218994,844.523376 
	C1207.010010,867.597717 1217.118042,890.537537 1226.912842,913.610413 
	C1238.781982,941.569336 1250.394043,969.637451 1262.256714,997.599182 
	C1274.697998,1026.924927 1287.516479,1056.092163 1299.782471,1085.490356 
	C1313.581543,1118.562744 1327.921997,1151.459839 1340.211426,1185.096313 
	C1351.220703,1215.229248 1344.744629,1243.350220 1324.973389,1268.654297 
	C1312.246460,1284.942627 1294.672485,1293.583008 1276.225586,1300.866089 
	C1262.576294,1306.255005 1248.384399,1308.947510 1233.489624,1308.129761 
	C1221.589233,1307.476562 1210.455444,1304.185181 1199.654419,1299.811646 
	C1178.238525,1291.139526 1157.032837,1281.946533 1135.771484,1272.895630 
	C1115.100098,1264.095947 1094.488770,1255.155029 1073.812500,1246.366821 
	C1050.603638,1236.501953 1027.346680,1226.749878 1004.119751,1216.927734 
	C987.600037,1209.941895 971.098511,1202.912964 954.582764,1195.917847 
	C933.306641,1186.906250 912.002808,1177.959717 890.750732,1168.891602 
	C869.935974,1160.010010 849.206665,1150.927490 828.373901,1142.088623 
	C809.948120,1134.270996 791.400513,1126.740601 772.964233,1118.947144 
	C756.277039,1111.893311 739.696899,1104.586060 723.016174,1097.516602 
	C704.266479,1089.570312 685.422180,1081.846924 666.683838,1073.874146 
	C649.989868,1066.771118 633.423584,1059.368164 616.729919,1052.264282 
	C595.857422,1043.382080 574.890442,1034.721924 554.005737,1025.868286 
	C537.271790,1018.774231 520.628052,1011.467285 503.892609,1004.376892 
	C485.232574,996.471069 466.484589,988.772705 447.829102,980.856323 
	C428.473206,972.642700 408.964233,964.739685 389.948547,955.794495 
	C379.390594,950.827881 371.275024,938.067383 376.941956,924.228210 
	C382.825806,909.859192 388.518402,895.411255 394.481598,881.075623 
	C402.241882,862.419739 410.061462,843.786377 418.098694,825.248718 
	C422.915192,814.139526 427.548767,802.868164 433.460571,792.341492 
	C438.746216,782.929688 451.093628,779.087524 461.347626,782.948059 
	C476.141571,788.518066 490.719116,794.673584 505.314301,800.758423 
	C528.569702,810.453735 551.783813,820.249023 574.976685,830.093323 
	C591.791321,837.230347 608.517639,844.575317 625.330078,851.717590 
	C643.783569,859.557007 662.307007,867.231567 680.769226,875.050598 
	C695.201294,881.162781 709.574646,887.413574 723.995422,893.552795 
	C742.459595,901.413330 760.944275,909.226013 779.421936,917.054749 
	C793.878357,923.179810 808.345764,929.278564 822.793579,935.423828 
	C841.246399,943.272522 859.675354,951.177368 878.131531,959.018311 
	C892.712952,965.213074 907.325317,971.335327 921.914001,977.513123 
	C942.736816,986.330872 963.549255,995.173035 984.368530,1003.998962 
	C1001.180725,1011.126160 1017.999451,1018.237610 1034.809326,1025.370117 
	C1044.619141,1029.532471 1054.417114,1033.722168 1064.901855,1038.189941 
	C1061.799194,1030.745972 1058.906982,1023.747131 1055.968506,1016.767883 
	C1045.308228,991.447693 1034.700317,966.105103 1023.941528,940.826782 
	C1014.824280,919.405212 1005.483459,898.078857 996.320557,876.676575 
	C988.504028,858.419128 980.791565,840.117004 973.048035,821.828308 
	C966.115784,805.455811 959.201172,789.075806 952.283875,772.697021 
	C938.449097,739.938904 924.653259,707.164368 910.774292,674.425049 
	C899.176941,647.067993 887.439331,619.770325 875.845215,592.411926 
	C862.413879,560.718323 849.120544,528.966187 835.675354,497.278473 
	C823.811890,469.318298 811.771057,441.433411 799.902100,413.475555 
	C787.407227,384.043213 775.061462,354.547546 762.580261,325.109375 
	C749.082458,293.273834 735.291992,261.560608 722.025391,229.629395 
	C710.945984,202.962875 700.408752,176.070587 689.726196,149.240555 
	C688.721008,146.715942 688.395508,143.920731 687.394531,140.588654 
	C686.895142,135.800781 686.518250,131.666550 686.671631,127.552101 
	C686.903137,121.342072 687.504639,115.145836 687.948853,108.943741 
z"/>
<path fill="#00BFBF" opacity="1.000000" stroke="none" 
	d="
M687.552002,109.021767 
	C687.504639,115.145836 686.903137,121.342072 686.671631,127.552101 
	C686.518250,131.666550 686.895142,135.800781 687.052734,140.379822 
	C683.723022,150.623352 680.774170,160.572510 676.941528,170.168732 
	C669.736328,188.209198 662.037537,206.052902 654.513306,223.965515 
	C645.668701,245.021439 636.840210,266.084381 627.914185,287.105804 
	C619.098450,307.867554 610.129700,328.564270 601.302002,349.320984 
	C592.474060,370.078247 583.750366,390.879761 574.957886,411.652130 
	C566.177734,432.395386 557.355896,453.121063 548.576538,473.864655 
	C539.675537,494.895569 530.845947,515.956787 521.907288,536.971619 
	C513.786560,556.063416 505.514313,575.090820 497.395447,594.183350 
	C489.526581,612.688049 481.807373,631.256409 473.949677,649.765930 
	C466.798492,666.611023 459.524231,683.403809 452.350464,700.239319 
	C444.546875,718.552856 436.783997,736.883728 429.026581,755.216858 
	C420.180847,776.122009 411.355988,797.036011 402.530609,817.949768 
	C392.616577,841.443359 382.769257,864.965332 372.787323,888.430054 
	C362.942047,911.573547 352.896149,934.631592 343.064850,957.780945 
	C333.234528,980.927979 323.570557,1004.145630 313.807922,1027.321411 
	C312.368256,1030.739136 310.786438,1034.096924 308.892242,1038.326904 
	C321.012726,1033.233154 332.378632,1028.459717 343.741974,1023.680115 
	C362.557251,1015.766235 381.381104,1007.872498 400.180054,999.919983 
	C407.852112,996.674500 415.432770,993.210144 423.141754,990.057373 
	C424.618927,989.453369 426.743439,989.263794 428.160583,989.857910 
	C446.992523,997.753113 465.739197,1005.851257 484.531921,1013.840454 
	C505.109741,1022.588623 525.709717,1031.284668 546.306702,1039.987671 
	C567.094055,1048.771118 587.891968,1057.529663 608.680542,1066.310181 
	C625.975891,1073.615356 643.271362,1080.920410 660.545410,1088.275757 
	C662.289062,1089.018188 663.885254,1090.106934 666.081482,1091.331299 
	C629.952576,1106.566284 594.463013,1121.476685 559.018677,1136.493774 
	C524.881348,1150.957153 490.805756,1165.566284 456.675446,1180.046265 
	C422.528656,1194.533081 388.328094,1208.893188 354.187317,1223.394165 
	C323.991180,1236.219849 293.869049,1249.219727 263.669586,1262.037476 
	C236.589447,1273.531250 209.556259,1285.148315 182.283020,1296.168335 
	C170.859558,1300.784058 159.107132,1305.357178 147.069458,1307.457031 
	C135.815826,1309.419922 123.894821,1309.098267 112.568542,1305.720825 
	C94.289871,1300.270630 76.759193,1293.238525 61.583263,1281.243896 
	C46.728657,1269.503418 37.298130,1254.228638 32.039383,1236.265015 
	C25.593966,1214.247681 29.301155,1193.086304 37.924332,1172.423584 
	C52.450809,1137.615601 66.911934,1102.779907 81.557373,1068.021973 
	C95.011475,1036.091309 108.707458,1004.262817 122.232361,972.362000 
	C135.672394,940.661499 148.985336,908.906982 162.440887,877.213074 
	C174.324677,849.221313 186.381027,821.302734 198.265045,793.310974 
	C212.682953,759.350830 226.967102,725.333801 241.371490,691.367920 
	C252.215240,665.797913 263.199036,640.287292 274.044373,614.717957 
	C286.479309,585.400879 298.785065,556.028870 311.231201,526.716553 
	C322.087402,501.148743 333.115540,475.653931 343.966858,450.084106 
	C354.748047,424.679626 365.350555,399.199371 376.130524,373.794373 
	C384.998352,352.895569 394.076019,332.085785 402.942688,311.186462 
	C412.765747,288.032837 422.401398,264.799683 432.217041,241.642853 
	C442.093323,218.342865 452.119385,195.106415 462.026672,171.819504 
	C472.122681,148.088913 481.828247,124.185638 492.321991,100.632973 
	C499.992126,83.417824 507.240448,65.720886 521.821228,52.743622 
	C534.705627,41.276173 549.596741,33.749374 566.760681,30.988094 
	C595.630249,26.343664 621.140991,35.674652 645.409119,49.961536 
	C667.821167,63.155769 680.605408,83.171783 686.145020,108.219612 
	C686.222656,108.570312 686.807251,108.808884 687.552002,109.021767 
z"/>
<path fill="#00BFBF" opacity="1.000000" stroke="none" 
	d="
M858.956604,805.007446 
	C876.035461,797.919617 892.555847,790.441833 909.479797,784.028931 
	C926.488281,777.584045 937.707520,784.793091 943.992676,798.413147 
	C949.670898,810.718262 954.706482,823.319946 960.027832,835.789856 
	C967.145752,852.469910 974.336365,869.119507 981.362427,885.838257 
	C986.796936,898.770020 992.036926,911.783630 997.344116,924.768738 
	C1001.968140,936.082520 995.550964,950.397156 985.202820,955.245239 
	C973.806885,960.584229 962.280212,965.681763 950.579468,970.299194 
	C948.389648,971.163269 944.940491,969.671997 942.361084,968.583557 
	C916.770325,957.784485 891.262878,946.788025 865.687073,935.953125 
	C836.369629,923.533081 806.985352,911.270813 777.670654,898.844238 
	C755.266113,889.346985 732.924133,879.702026 710.557373,870.115540 
	C710.024963,869.887451 709.529053,869.574341 708.211792,868.871948 
	C758.846802,847.391479 808.710999,826.237976 858.956604,805.007446 
z"/>
</svg>